<?xml version="1.0" encoding="UTF-8" standalone="no"?>
<svg
   xmlns:dc="http://purl.org/dc/elements/1.1/"
   xmlns:cc="http://creativecommons.org/ns#"
   xmlns:rdf="http://www.w3.org/1999/02/22-rdf-syntax-ns#"
   xmlns:svg="http://www.w3.org/2000/svg"
   xmlns="http://www.w3.org/2000/svg"
   xmlns:sodipodi="http://sodipodi.sourceforge.net/DTD/sodipodi-0.dtd"
   xmlns:inkscape="http://www.inkscape.org/namespaces/inkscape"
   version="1.1"
   id="Layer_1"
   x="0px"
   y="0px"
   width="192.756px"
   height="192.756px"
   viewBox="0 0 192.756 192.756"
   enable-background="new 0 0 192.756 192.756"
   xml:space="preserve"
   sodipodi:version="0.32"
   inkscape:version="0.48.1 r9760"
   sodipodi:docname="Tabasco.svg"
   inkscape:output_extension="org.inkscape.output.svg.inkscape"><metadata
   id="metadata2266"><rdf:RDF><cc:Work
       rdf:about=""><dc:format>image/svg+xml</dc:format><dc:type
         rdf:resource="http://purl.org/dc/dcmitype/StillImage" /></cc:Work></rdf:RDF></metadata><defs
   id="defs2264" /><sodipodi:namedview
   inkscape:window-height="879"
   inkscape:window-width="1110"
   inkscape:pageshadow="2"
   inkscape:pageopacity="0.0"
   guidetolerance="10.0"
   gridtolerance="10.0"
   objecttolerance="10.0"
   borderopacity="1.0"
   bordercolor="#666666"
   pagecolor="#ffffff"
   id="base"
   inkscape:zoom="9.6845853"
   inkscape:cx="94.230787"
   inkscape:cy="125.43669"
   inkscape:window-x="103"
   inkscape:window-y="92"
   inkscape:current-layer="g2233"
   showgrid="false"
   inkscape:window-maximized="0" />
<g
   id="g2233">
	<polygon
   fill-rule="evenodd"
   clip-rule="evenodd"
   fill="#FFFFFF"
   points="0,0 192.756,0 192.756,192.756 0,192.756 0,0  "
   id="polygon2235"
   style="fill:#ffffff;fill-opacity:0" />
	<polygon
   fill="#EE2A2E"
   points="9.05,95.758 95.688,9.543 96.228,9.006 96.769,9.543 183.706,95.912 184.252,96.455    183.706,96.998 97.067,183.213 96.528,183.75 95.987,183.213 9.05,96.844 8.504,96.301 9.05,95.758  "
   id="polygon2237" />
	<polygon
   fill="#FFFFFF"
   points="96.229,11.167 10.677,96.3 96.527,181.589 182.079,96.456 96.229,11.167  "
   id="polygon2239"
   style="fill:#ffffff;fill-opacity:1" />
	<path
   fill-rule="evenodd"
   clip-rule="evenodd"
   fill="#EE2A2E"
   d="M76.425,122.412h2.314c0.546,0,0.944-0.099,1.193-0.297   c0.249-0.198,0.374-0.509,0.374-0.936c0-0.442-0.124-0.762-0.368-0.958c-0.245-0.195-0.649-0.293-1.211-0.293h-2.303V122.412   L76.425,122.412z M76.425,118.305h2.23c0.481,0,0.834-0.084,1.059-0.249c0.222-0.165,0.335-0.428,0.335-0.784   c0-0.348-0.108-0.602-0.326-0.758c-0.218-0.155-0.577-0.234-1.079-0.234h-2.219V118.305L76.425,118.305z M74.554,124.128v-9.501   h4.476c0.973,0,1.713,0.205,2.224,0.617c0.508,0.409,0.764,1.006,0.764,1.79c0,0.479-0.095,0.883-0.284,1.206   c-0.189,0.321-0.474,0.57-0.852,0.746c0.491,0.198,0.856,0.485,1.099,0.856c0.245,0.37,0.366,0.835,0.366,1.39   c0,0.925-0.302,1.639-0.903,2.14c-0.604,0.505-1.456,0.756-2.561,0.756H74.554L74.554,124.128z M85.811,118.782h2.298   c0.498,0,0.863-0.102,1.099-0.304c0.233-0.203,0.351-0.52,0.351-0.956c0-0.412-0.115-0.725-0.342-0.938   c-0.226-0.213-0.568-0.318-1.017-0.318h-2.389V118.782L85.811,118.782z M83.856,124.128v-9.501h4.608   c1.035,0,1.803,0.223,2.301,0.665c0.5,0.442,0.749,1.121,0.749,2.032c0,0.579-0.121,1.063-0.365,1.451   c-0.242,0.388-0.592,0.652-1.048,0.793c0.414,0.146,0.707,0.369,0.883,0.671c0.174,0.302,0.273,0.771,0.299,1.407l0.04,1.12   c0,0.009,0,0.022,0,0.04c0.011,0.565,0.134,0.912,0.368,1.03v0.291h-2.145c-0.068-0.135-0.119-0.297-0.156-0.493   c-0.035-0.196-0.059-0.43-0.066-0.7l-0.026-1c-0.021-0.587-0.132-0.986-0.332-1.19c-0.2-0.207-0.562-0.311-1.081-0.311h-2.072   v3.694H83.856L83.856,124.128z M97.086,116.529l-1.316,4.045h2.638L97.086,116.529L97.086,116.529z M95.95,114.627h2.256   l3.427,9.501H99.58l-0.645-1.953h-3.681l-0.626,1.953H92.57L95.95,114.627L95.95,114.627z M102.348,124.128v-9.501h2.046   l3.857,6.528v-6.528h1.929v9.501h-2.02l-3.883-6.528v6.528H102.348L102.348,124.128z M114.054,122.412h1.568   c0.907,0,1.565-0.237,1.971-0.713c0.407-0.474,0.609-1.246,0.609-2.312c0-1.062-0.189-1.843-0.567-2.341   c-0.379-0.5-0.97-0.748-1.775-0.748h-1.806V122.412L114.054,122.412z M112.139,124.128v-9.501h3.721   c1.458,0,2.546,0.395,3.261,1.181c0.716,0.786,1.075,1.979,1.075,3.58c0,0.867-0.132,1.634-0.396,2.296   c-0.264,0.663-0.649,1.195-1.151,1.599c-0.379,0.302-0.809,0.518-1.291,0.649c-0.481,0.13-1.155,0.196-2.025,0.196H112.139   L112.139,124.128z"
   id="path2241" />
	<path
   clip-rule="evenodd"
   d="m 57.563,80.694 -10.526,-6.077 2.112,-3.658 3.617,1.445 c 0.453,0.182 0.922,0.386 1.41,0.609 0.486,0.225 1.009,0.478 1.566,0.758 -0.594,-0.398 -1.114,-0.757 -1.563,-1.072 -0.45,-0.318 -0.791,-0.568 -1.022,-0.754 l -3.122,-2.521 2.101,-3.639 10.526,6.077 -1.319,2.285 -3.851,-2.223 C 56.688,71.46 55.86,70.976 55.011,70.47 c -0.849,-0.504 -1.717,-1.029 -2.604,-1.567 0.83,0.667 1.525,1.229 2.084,1.683 0.559,0.454 0.918,0.746 1.076,0.878 l 4.972,4.077 -0.863,1.494 -5.776,-2.138 c -0.819,-0.307 -1.552,-0.589 -2.199,-0.846 -0.644,-0.255 -1.259,-0.505 -1.842,-0.75 0.817,0.431 1.639,0.879 2.471,1.341 0.829,0.461 1.717,0.966 2.666,1.514 l 3.891,2.246 z m 1.132605,-19.657341 c -0.206,-0.199 -0.384,-0.308 -0.537,-0.328 -0.154,-0.019 -0.3,0.044 -0.44,0.189 -0.141,0.146 -0.197,0.295 -0.171,0.451 0.027,0.153 0.142,0.327 0.344,0.521 l 2.83389,2.571864 c 0.209,0.202 -0.121095,-0.344123 0.541,0.336 0.15,0.022 0.298,-0.043 0.442,-0.192 0.145,-0.149 0.205,-0.299 0.177,-0.449 -0.027,-0.15 -0.145,-0.327 -0.354,-0.529 l -0.813931,-0.846946 1.812,-1.876 0.551931,0.593946 c 0.732,0.707 1.095,1.426 1.089,2.156 -0.005,0.73 -0.376,1.479 -1.118,2.247 -0.742,0.768 -1.474,1.165 -2.198,1.194 -0.726,0.026 -1.456,-0.313 -2.191,-1.022 l -2.31089,-2.064864 c -0.731,-0.707 -0.803946,-1.351986 -0.799946,-2.075986 0.003,-0.725 0.375,-1.47 1.116,-2.238 0.742,-0.768 1.476,-1.167 2.203,-1.2 0.727,-0.032 1.167946,0.232986 1.898946,0.938986 l 0.603,0.582 -1.812,1.875 z m 5.992454,7.272132 c -0.684154,-0.613506 -0.813836,-0.582446 -1.470038,-1.249429 l 1.358939,-1.523858 1.427648,1.280053 -0.698148,0.75019 z M 71.647,62.563 65.206,52.256 l 2.332,-1.457 6.441,10.307 z m 3.414,-2.375 -5.518,-10.83 2.45,-1.248 4.435,8.704 2.675,-1.363 1.083,2.125 z m 5.836,-3.203 -3.145,-11.74 2.656,-0.712 1.162,4.337 1.554,-0.417 -1.162,-4.337 2.656,-0.711 3.146,11.74 -2.656,0.711 -1.372,-5.119 -1.554,0.417 1.372,5.118 z m 8.219,-2.297 -0.848,-12.125 6.137,-0.429 0.164,2.344 -3.394,0.237 0.168,2.41 2.995,-0.209 0.162,2.314 -2.995,0.209 0.189,2.712 3.498,-0.245 0.164,2.344 z M 96.412,54.063 97.893,42 l 3.061,0.375 0.81,5.064 c 0.098,0.56 0.183,1.136 0.255,1.726 0.075,0.592 0.144,1.218 0.208,1.878 -0.009,-0.612 0.005,-1.225 0.042,-1.835 0.036,-0.609 0.104,-1.312 0.202,-2.107 l 0.55,-4.472 2.648,0.325 -1.481,12.063 -2.95,-0.362 -0.93,-5.379 c -0.099,-0.563 -0.184,-1.144 -0.252,-1.741 -0.07,-0.595 -0.123,-1.218 -0.163,-1.871 -0.03,0.912 -0.077,1.77 -0.133,2.576 -0.056,0.804 -0.127,1.549 -0.211,2.235 l -0.48,3.914 z m 9.211,1.192 3.756,-11.559 2.933,0.953 -0.17,5.125 c -0.012,0.568 -0.039,1.15 -0.08,1.743 -0.039,0.596 -0.092,1.223 -0.154,1.883 0.108,-0.603 0.238,-1.202 0.391,-1.793 0.152,-0.591 0.354,-1.268 0.602,-2.031 l 1.393,-4.284 2.538,0.825 -3.756,11.559 -2.827,-0.918 0.114,-5.458 c 0.01,-0.571 0.038,-1.158 0.084,-1.757 0.045,-0.597 0.111,-1.219 0.197,-1.867 -0.204,0.889 -0.414,1.722 -0.622,2.502 -0.208,0.779 -0.42,1.497 -0.633,2.154 l -1.219,3.75 z m 9.971,3.693 2.317,-4.182 1.54,-7.577 2.553,1.415 -0.679,2.191 c -0.131,0.408 -0.254,0.765 -0.37,1.074 -0.118,0.307 -0.244,0.608 -0.378,0.901 0.32,-0.473 0.72,-0.99 1.197,-1.549 l 0.018,-0.017 1.575,-1.845 2.482,1.376 -5.443,5.186 -2.414,4.356 z m 15.33,7.913 c -0.853,0.914 -1.713,1.395 -2.582,1.445 -0.872,0.048 -1.748,-0.336 -2.631,-1.159 -0.873,-0.814 -1.317,-1.661 -1.332,-2.54 -0.015,-0.879 0.401,-1.773 1.25,-2.683 l 3.407,-3.654 c 0.849,-0.91 1.709,-1.387 2.581,-1.432 0.874,-0.043 1.748,0.343 2.624,1.161 0.887,0.826 1.337,1.671 1.351,2.535 0.015,0.864 -0.405,1.755 -1.261,2.673 l -0.642,0.688 -2.033,-1.895 0.945,-1.014 c 0.269,-0.289 0.416,-0.546 0.44,-0.769 0.022,-0.225 -0.073,-0.438 -0.29,-0.64 -0.208,-0.195 -0.424,-0.271 -0.645,-0.231 -0.221,0.04 -0.466,0.206 -0.734,0.494 l -4.019,4.309 c -0.271,0.291 -0.417,0.544 -0.439,0.765 -0.024,0.223 0.07,0.433 0.286,0.634 0.215,0.2 0.43,0.278 0.649,0.239 0.219,-0.038 0.462,-0.202 0.732,-0.492 l 1.138,-1.219 2.033,1.896 z m 7.05,1.412 -4.942,3.21 c -0.331,0.214 -0.535,0.425 -0.612,0.635 -0.076,0.209 -0.034,0.436 0.127,0.684 0.16,0.247 0.349,0.374 0.57,0.39 0.224,0.015 0.499,-0.086 0.83,-0.301 l 4.942,-3.21 c 0.331,-0.215 0.535,-0.429 0.613,-0.639 0.076,-0.212 0.035,-0.442 -0.126,-0.691 -0.155,-0.24 -0.346,-0.366 -0.569,-0.381 -0.224,-0.013 -0.502,0.088 -0.833,0.303 z m -1.887,-2.089 c 1.044,-0.678 1.994,-0.933 2.851,-0.766 0.858,0.17 1.613,0.756 2.266,1.762 0.66,1.016 0.893,1.945 0.697,2.787 -0.195,0.842 -0.818,1.605 -1.871,2.289 l -4.189,2.721 c -1.048,0.68 -2.001,0.94 -2.857,0.778 -0.857,-0.164 -1.612,-0.75 -2.27,-1.762 -0.65,-1.001 -0.877,-1.931 -0.679,-2.787 0.199,-0.855 0.819,-1.623 1.862,-2.301 z m -2.897,12.211 2.546,-1.354 1.155,2.173 -2.546,1.354 z"
   id="path2243"
   inkscape:connector-curvature="0"
   style="fill:#007b50;fill-rule:evenodd"
   sodipodi:nodetypes="cccccccccccccccscccccccccccccccccccccccccscccccccccccccccccccccccccccccccccccccccccccccccccccccccccccccccccccccccccccccccccccccccccccccccccccccccccscccccccccccscccccccccccscccccccccccccccsscccccscccs" />
	<path
   fill-rule="evenodd"
   clip-rule="evenodd"
   fill="#007B50"
   d="M46.504,116.643l-0.853-2.009l11.139-4.729l1.937,4.563   c0.552,1.301,0.632,2.404,0.245,3.312c-0.389,0.904-1.029,1.548-1.921,1.926c-1.02,0.434-1.988,0.443-2.906,0.031   c-0.921-0.411-1.602-1.142-2.045-2.186l-1.181-2.783L46.504,116.643L46.504,116.643z M52.641,114.038l1.009,2.376   c0.262,0.618,0.617,1.026,1.059,1.224c0.446,0.199,0.918,0.188,1.425-0.026c0.457-0.194,0.783-0.51,0.984-0.95   c0.197-0.441,0.126-1.057-0.208-1.845l-0.932-2.195L52.641,114.038L52.641,114.038z M55.528,131.55l-4.842-6.197l9.536-7.45   l4.794,6.135l-1.418,1.109l-3.451-4.417l-2.585,2.02l2.772,3.549l-1.383,1.08l-2.772-3.548l-2.668,2.085l3.499,4.479L55.528,131.55   L55.528,131.55z M59.346,135.552l-1.622-1.461l8.098-8.992l3.684,3.316c1.05,0.945,1.589,1.911,1.622,2.897   c0.03,0.984-0.279,1.838-0.927,2.558c-0.741,0.823-1.614,1.242-2.621,1.256c-1.008,0.017-1.935-0.357-2.778-1.116l-2.247-2.023   L59.346,135.552L59.346,135.552z M63.807,130.597l1.918,1.728c0.5,0.449,0.993,0.67,1.477,0.662   c0.488-0.009,0.912-0.218,1.281-0.627c0.332-0.368,0.495-0.793,0.49-1.277c-0.008-0.483-0.332-1.011-0.968-1.584l-1.772-1.596   L63.807,130.597L63.807,130.597z M69.14,142.785l-1.944-0.991l5.494-10.782l4.417,2.251c1.259,0.641,2.03,1.435,2.316,2.379   c0.284,0.942,0.207,1.848-0.233,2.71c-0.503,0.987-1.238,1.617-2.207,1.892c-0.97,0.277-1.961,0.155-2.972-0.359l-2.693-1.372   L69.14,142.785L69.14,142.785z M72.167,136.845l2.3,1.172c0.599,0.305,1.132,0.391,1.598,0.258   c0.469-0.135,0.825-0.446,1.075-0.937c0.226-0.443,0.272-0.895,0.143-1.361c-0.133-0.465-0.582-0.891-1.345-1.279l-2.125-1.083   L72.167,136.845L72.167,136.845z M85.033,149.354l-7.56-2.168l3.335-11.633l7.484,2.146l-0.496,1.731l-5.387-1.545l-0.905,3.153   l4.329,1.241l-0.484,1.687l-4.328-1.241l-0.934,3.256l5.463,1.566L85.033,149.354L85.033,149.354z M98.172,150.833l-2.303-0.121   l-1.617-5.065l-3.064-0.161l-0.26,4.969l-2.179-0.114l0.634-12.085l5.243,0.274c1.457,0.076,2.512,0.462,3.161,1.156   c0.651,0.692,0.948,1.562,0.894,2.607c-0.081,1.554-0.862,2.582-2.347,3.09L98.172,150.833L98.172,150.833z M91.279,143.742   l2.711,0.142c0.783,0.041,1.377-0.092,1.779-0.403c0.401-0.31,0.615-0.757,0.646-1.333c0.028-0.532-0.137-0.971-0.498-1.317   c-0.36-0.349-0.88-0.54-1.56-0.575l-2.886-0.151L91.279,143.742L91.279,143.742z M104.549,147.448l1.911-1.018   c0.575,1.082,1.677,1.39,3.309,0.921c0.742-0.212,1.273-0.521,1.59-0.934c0.317-0.409,0.409-0.833,0.284-1.271   c-0.091-0.317-0.266-0.585-0.523-0.804c-0.261-0.218-0.712-0.318-1.352-0.299l-2.389,0.056c-0.819,0.021-1.445-0.046-1.881-0.191   c-0.437-0.148-0.833-0.423-1.183-0.819c-0.351-0.397-0.602-0.857-0.752-1.381c-0.298-1.038-0.15-1.984,0.443-2.835   c0.594-0.85,1.49-1.446,2.694-1.792c1.001-0.286,1.957-0.321,2.87-0.111c0.911,0.211,1.592,0.687,2.037,1.428l-1.854,1.066   c-0.559-0.794-1.4-1.028-2.525-0.705c-0.654,0.188-1.113,0.464-1.379,0.836c-0.265,0.372-0.337,0.768-0.216,1.189   c0.19,0.662,0.861,0.975,2.018,0.933l2.12-0.073c1.284-0.044,2.215,0.171,2.793,0.641c0.58,0.474,0.97,1.063,1.173,1.773   c0.327,1.14,0.155,2.165-0.519,3.066c-0.673,0.904-1.692,1.553-3.063,1.945c-1.151,0.331-2.23,0.379-3.236,0.142   C105.915,148.977,105.124,148.392,104.549,147.448L104.549,147.448z M125.634,142.269l-2.076,1.059l-2.171-2.128l-4.147,2.113   l0.465,2.996l-1.658,0.846l-1.916-12.605l2.392-1.219L125.634,142.269L125.634,142.269z M120.073,139.909l-4.022-4.01l0.879,5.611   L120.073,139.909L120.073,139.909z M126.284,126.098l5.101,5.868c0.69,0.795,1.134,1.484,1.324,2.067   c0.195,0.585,0.17,1.252-0.069,2.006c-0.241,0.755-0.73,1.452-1.466,2.092c-0.744,0.646-1.474,1.044-2.186,1.194   c-0.712,0.149-1.376,0.081-1.991-0.202s-1.238-0.788-1.866-1.509l-5.205-5.988l1.681-1.462l5.101,5.867   c0.699,0.804,1.324,1.187,1.88,1.144c0.557-0.038,1.059-0.254,1.504-0.641c0.514-0.447,0.806-0.937,0.878-1.477   c0.074-0.538-0.224-1.189-0.891-1.956l-5.101-5.868L126.284,126.098L126.284,126.098z M138.202,124.208l1.396-1.48   c0.889,0.833,1.403,1.809,1.541,2.924c0.142,1.114-0.182,2.197-0.973,3.246c-0.665,0.882-1.426,1.43-2.286,1.646   c-0.857,0.218-1.777,0.188-2.763-0.089c-0.983-0.274-1.933-0.76-2.849-1.449c-1.472-1.109-2.408-2.36-2.806-3.755   c-0.396-1.394-0.133-2.704,0.788-3.927c0.722-0.957,1.619-1.53,2.689-1.725c1.069-0.191,2.215,0.044,3.44,0.705l-1.045,1.744   c-1.684-0.803-2.906-0.693-3.672,0.321c-0.489,0.65-0.57,1.385-0.235,2.203c0.336,0.816,1.079,1.661,2.229,2.527   c1.172,0.884,2.2,1.355,3.088,1.418c0.892,0.065,1.574-0.223,2.055-0.861c0.385-0.51,0.511-1.094,0.381-1.756   C139.05,125.24,138.724,124.677,138.202,124.208L138.202,124.208z M147.16,115.362l-3.199,7.186l-11.056-4.923l3.167-7.113   l1.645,0.732l-2.279,5.12l2.997,1.334l1.831-4.113l1.604,0.714l-1.831,4.113l3.094,1.378l2.311-5.192L147.16,115.362   L147.16,115.362z"
   id="path2245" />
	<path
   fill-rule="evenodd"
   clip-rule="evenodd"
   fill="#EE2A2E"
   d="M74.748,40.513l-1.425-4.387l1.334-0.434l1.958,3.056   l-0.224-3.619l1.34-0.435l1.425,4.387l-0.846,0.275l-1.149-3.538l0.259,3.827l-0.923,0.3L74.444,36.7l1.149,3.538L74.748,40.513   L74.748,40.513z M80.73,34.733l-0.109,2.062l1.237-0.331L80.73,34.733L80.73,34.733z M79.958,33.983l1.059-0.283l2.8,4.025   l-0.962,0.258l-0.548-0.835l-1.727,0.463l-0.048,0.994l-0.965,0.259L79.958,33.983L79.958,33.983z M85.079,36.645l0.75-0.132   c0.434-0.077,0.729-0.246,0.882-0.507c0.155-0.261,0.187-0.648,0.097-1.157c-0.09-0.507-0.246-0.865-0.469-1.071   c-0.224-0.207-0.526-0.276-0.912-0.208l-0.864,0.152L85.079,36.645L85.079,36.645z M84.308,37.626l-0.801-4.542l1.779-0.313   c0.697-0.123,1.25-0.026,1.659,0.29c0.409,0.315,0.681,0.855,0.815,1.621c0.073,0.415,0.075,0.792,0.004,1.131   c-0.07,0.339-0.209,0.626-0.416,0.861c-0.156,0.176-0.343,0.315-0.562,0.419c-0.22,0.103-0.536,0.191-0.952,0.265L84.308,37.626   L84.308,37.626z M88.91,36.817l-0.562-4.579l3.326-0.408l0.098,0.795l-2.396,0.294l0.12,0.976l2.191-0.269l0.096,0.783   l-2.191,0.269l0.145,1.178l2.509-0.308l0.104,0.845L88.91,36.817L88.91,36.817z M94.892,36.225l-0.081-4.612l0.949-0.017   l0.08,4.612L94.892,36.225L94.892,36.225z M96.83,36.178l0.081-4.612l0.993,0.017l1.817,3.202l0.056-3.169l0.937,0.016   l-0.081,4.612l-0.979-0.017l-1.831-3.202l-0.055,3.169L96.83,36.178L96.83,36.178z M103.939,31.825l0.95,0.117l-0.352,2.872   c-0.044,0.354-0.006,0.622,0.115,0.801c0.121,0.18,0.335,0.29,0.642,0.327c0.311,0.038,0.547-0.015,0.709-0.16   c0.162-0.144,0.265-0.394,0.309-0.75l0.353-2.873l0.942,0.116l-0.365,2.975c-0.068,0.562-0.279,0.973-0.63,1.234   s-0.821,0.357-1.412,0.284c-0.594-0.073-1.031-0.278-1.311-0.616s-0.385-0.79-0.315-1.353L103.939,31.825L103.939,31.825z    M107.729,37.015l0.164-0.928l0.929,0.164l-0.164,0.929L107.729,37.015L107.729,37.015z M109.637,35.867l0.912,0.211   c-0.022,0.254,0.037,0.459,0.176,0.618c0.14,0.157,0.366,0.272,0.682,0.345c0.27,0.062,0.482,0.061,0.641-0.003   c0.158-0.063,0.259-0.189,0.303-0.377c0.063-0.273-0.277-0.588-1.02-0.948c-0.01-0.005-0.019-0.009-0.025-0.013   c-0.02-0.009-0.05-0.024-0.09-0.044c-0.398-0.188-0.674-0.36-0.825-0.515c-0.136-0.138-0.226-0.304-0.27-0.495   c-0.043-0.191-0.038-0.403,0.016-0.637c0.102-0.438,0.328-0.738,0.679-0.903c0.351-0.164,0.807-0.181,1.367-0.051   c0.525,0.121,0.907,0.339,1.146,0.656c0.238,0.317,0.314,0.703,0.227,1.158l-0.889-0.205c0.034-0.222-0.011-0.407-0.136-0.555   c-0.124-0.148-0.325-0.255-0.604-0.319c-0.243-0.056-0.439-0.052-0.593,0.012s-0.25,0.184-0.291,0.359   c-0.055,0.238,0.16,0.474,0.643,0.711c0.131,0.064,0.234,0.114,0.307,0.151c0.308,0.159,0.525,0.278,0.651,0.355   c0.127,0.079,0.234,0.159,0.323,0.239c0.159,0.145,0.266,0.311,0.318,0.499c0.054,0.189,0.053,0.4-0.002,0.635   c-0.107,0.467-0.349,0.793-0.724,0.979c-0.375,0.184-0.849,0.21-1.423,0.078c-0.565-0.131-0.979-0.364-1.238-0.701   C109.636,36.77,109.549,36.357,109.637,35.867L109.637,35.867z M113.629,38.335l0.244-0.911l0.911,0.244l-0.244,0.911   L113.629,38.335L113.629,38.335z M118.192,35.84l-1.214,1.67l1.218,0.396L118.192,35.84L118.192,35.84z M117.954,34.791   l1.042,0.338l0.156,4.901l-0.947-0.308l-0.005-0.999l-1.7-0.552l-0.582,0.808l-0.95-0.309L117.954,34.791L117.954,34.791z    M119.7,40.302l0.338-0.88l0.88,0.338l-0.338,0.88L119.7,40.302L119.7,40.302z"
   id="path2247" />
	<path
   fill-rule="evenodd"
   clip-rule="evenodd"
   fill="#EE2A2E"
   d="M76.042,70.866l0.66,1.816l0.944-0.738L76.042,70.866   L76.042,70.866z M75.103,70.502l0.808-0.631l3.883,2.443l-0.734,0.574l-0.777-0.519l-1.318,1.029l0.323,0.874l-0.737,0.576   L75.103,70.502L75.103,70.502z M81.03,71.555l-3.549-2.871l0.834-0.522l2.488,2.252l-0.917-3.233l0.824-0.515l1.04,4.438   L81.03,71.555L81.03,71.555z M83.422,70.107l-1.755-3.942l2.863-1.275l0.305,0.685l-2.063,0.918l0.375,0.841l1.887-0.84l0.3,0.674   l-1.886,0.84l0.451,1.015l2.16-0.962l0.324,0.729L83.422,70.107L83.422,70.107z M87.303,65.917l1.008-0.271   c0.219-0.058,0.367-0.146,0.446-0.262c0.079-0.116,0.093-0.269,0.042-0.46c-0.048-0.181-0.136-0.305-0.26-0.372   c-0.124-0.066-0.287-0.073-0.484-0.021l-1.048,0.281L87.303,65.917L87.303,65.917z M87.074,68.492l-1.117-4.168l2.022-0.542   c0.454-0.122,0.817-0.114,1.087,0.021c0.271,0.136,0.46,0.404,0.567,0.804c0.068,0.254,0.072,0.481,0.01,0.68   c-0.061,0.198-0.183,0.355-0.367,0.47c0.199,0.016,0.354,0.08,0.466,0.191c0.112,0.112,0.21,0.306,0.297,0.582l0.149,0.487   c0.001,0.004,0.003,0.01,0.005,0.017c0.071,0.248,0.166,0.384,0.283,0.409l0.034,0.128l-0.941,0.252   c-0.045-0.051-0.087-0.116-0.126-0.198c-0.039-0.082-0.077-0.182-0.111-0.299l-0.129-0.436c-0.078-0.255-0.173-0.417-0.286-0.484   c-0.112-0.067-0.283-0.07-0.511-0.009l-0.909,0.244l0.434,1.621L87.074,68.492L87.074,68.492z M93.238,67.178l-0.881,0.108   l-0.196-1.596l-1.885-2.496l1.079-0.133l1.143,1.734l0.619-1.95l1.007-0.124l-1.081,2.86L93.238,67.178L93.238,67.178z    M96.804,66.936l0.075-4.315l0.888,0.016l-0.075,4.315L96.804,66.936L96.804,66.936z M98.651,65.634l0.869,0.106   c0.004,0.238,0.079,0.424,0.224,0.558c0.146,0.133,0.367,0.218,0.669,0.254c0.256,0.032,0.454,0.01,0.595-0.066   c0.142-0.075,0.223-0.202,0.244-0.38c0.032-0.26-0.314-0.521-1.04-0.783c-0.01-0.003-0.019-0.007-0.025-0.009   c-0.019-0.006-0.048-0.017-0.088-0.032c-0.389-0.137-0.662-0.269-0.818-0.399c-0.14-0.115-0.239-0.26-0.299-0.434   c-0.059-0.173-0.075-0.371-0.047-0.594c0.051-0.417,0.232-0.72,0.542-0.907s0.733-0.248,1.268-0.182   c0.501,0.061,0.877,0.228,1.13,0.498c0.253,0.272,0.36,0.623,0.324,1.056l-0.847-0.104c0.01-0.209-0.051-0.377-0.181-0.502   c-0.131-0.126-0.328-0.206-0.593-0.238c-0.231-0.028-0.415-0.005-0.551,0.069c-0.137,0.075-0.215,0.195-0.235,0.362   c-0.027,0.227,0.194,0.426,0.667,0.599c0.129,0.047,0.229,0.083,0.3,0.11c0.303,0.118,0.517,0.208,0.642,0.267   c0.126,0.061,0.233,0.125,0.324,0.191c0.161,0.118,0.277,0.263,0.345,0.433s0.088,0.367,0.061,0.591   c-0.055,0.446-0.247,0.772-0.578,0.981c-0.33,0.208-0.769,0.28-1.315,0.212c-0.539-0.066-0.947-0.243-1.222-0.531   C98.738,66.474,98.617,66.098,98.651,65.634L98.651,65.634z M102.751,67.568l0.971-4.205l0.865,0.2l-0.791,3.428l2.053,0.474   l-0.18,0.776L102.751,67.568L102.751,67.568z M108.901,65.82l-1.217,1.501l1.119,0.429L108.901,65.82L108.901,65.82z    M108.729,64.829l0.957,0.367l-0.094,4.586l-0.87-0.334l0.044-0.933l-1.561-0.6l-0.583,0.727l-0.873-0.335L108.729,64.829   L108.729,64.829z M110.026,70.083l2.093-3.774l0.813,0.451l0.095,3.443l1.438-2.594l0.767,0.425l-2.092,3.774l-0.803-0.444   l-0.105-3.449l-1.438,2.594L110.026,70.083L110.026,70.083z M115.072,72.344l0.562,0.438c0.325,0.253,0.627,0.353,0.905,0.296   c0.277-0.056,0.566-0.276,0.864-0.657c0.297-0.38,0.447-0.713,0.451-0.997c0.004-0.285-0.137-0.539-0.426-0.764l-0.646-0.505   L115.072,72.344L115.072,72.344z M113.907,72.422l2.657-3.4l1.331,1.041c0.522,0.408,0.801,0.853,0.838,1.334   c0.036,0.482-0.169,1.009-0.616,1.582c-0.243,0.311-0.505,0.548-0.784,0.711c-0.28,0.164-0.567,0.247-0.859,0.25   c-0.22,0.002-0.435-0.041-0.644-0.128c-0.209-0.088-0.469-0.253-0.78-0.497L113.907,72.422L113.907,72.422z"
   id="path2249" />
	<path
   fill-rule="evenodd"
   clip-rule="evenodd"
   fill="#EE2A2E"
   d="M92.182,75.526v-4.842h0.866v3.948h2.055v0.895H92.182   L92.182,75.526z M98.107,71.653l-0.583,2.062h1.169L98.107,71.653L98.107,71.653z M97.604,70.684h1l1.518,4.842h-0.908   l-0.286-0.996h-1.632l-0.277,0.996h-0.912L97.604,70.684L97.604,70.684z M101.274,75.526v-0.99h0.861v0.99H101.274L101.274,75.526z   "
   id="path2251" />
	<path
   fill-rule="evenodd"
   clip-rule="evenodd"
   fill="#007B50"
   d="M173.544,92.9c2.087,0,3.789,1.702,3.789,3.789   c0,2.087-1.702,3.79-3.789,3.79c-2.088,0-3.79-1.702-3.79-3.79C169.754,94.602,171.456,92.9,173.544,92.9L173.544,92.9z"
   id="path2253" />
	<path
   fill-rule="evenodd"
   clip-rule="evenodd"
   fill="#007B50"
   d="M110.211,89.064c0-3.983,3.924-6.257,7.017-6.257   c2.039,0,4.063,0.748,5.454,2.081c-0.555,0.931-1.109,1.863-1.665,2.794c-0.861-0.703-1.997-1.317-3.373-1.308   c-1.66,0.012-3.509,0.879-3.509,2.866c0,4.897,11.592,1.557,11.592,11.844c0,3.837-3.677,7.226-8.229,7.226   c-3.804,0-7.061-2.875-9.01-6.72c1.149-0.545,2.299-1.089,3.448-1.633c0.798,1.625,2.996,4.964,5.942,4.964   c2.642,0,4.282-1.627,4.282-3.976C122.16,94.256,110.211,98.094,110.211,89.064L110.211,89.064z M149.311,95.207   c0-3.944,0.845-7.072,2.534-9.387c1.689-2.313,3.775-3.474,6.644-3.474c2.862,0,4.953,1.16,6.651,3.479s2.547,5.449,2.547,9.381   c0,3.938-0.849,7.066-2.547,9.386c-1.698,2.32-3.789,3.479-6.651,3.479c-2.868,0-4.954-1.159-6.644-3.479   C150.155,102.273,149.311,99.145,149.311,95.207L149.311,95.207z M129.324,95.397c0-3.973,0.784-7.125,2.352-9.456   c1.568-2.331,3.505-3.5,6.166-3.5c2.658,0,4.599,1.169,6.175,3.505c0.235,0.349,0.45,0.716,0.646,1.101l-3.113,2.132   c-0.044-0.084-0.091-0.168-0.14-0.25c-1.891-3.19-4.852-3.204-6.743-0.005c-0.953,1.613-1.619,3.794-1.619,6.543   c0,2.745,0.666,4.927,1.619,6.543c1.888,3.201,4.852,3.192,6.743,0c0.522-0.881,0.816-1.93,0.977-3.146l3.299,2.099   c-0.37,1.479-0.919,2.776-1.669,3.889c-1.576,2.336-3.517,3.505-6.175,3.505c-2.661,0-4.598-1.169-6.166-3.505   C130.108,102.516,129.324,99.363,129.324,95.397L129.324,95.397z M32.592,107.313V87.26H25.18v-3.586h18.248v3.586h-6.484v20.054   H32.592L32.592,107.313z M67.186,107.371V83.673h8.766c3.583,0,5.659,2.054,6.144,4.631c0.376,2.004-0.326,4.403-1.915,6.125   c2.342,1.114,3.487,2.962,3.487,5.718c0,4.793-3.075,7.223-7.326,7.223H67.186L67.186,107.371z M71.028,104.106h5.518   c2.234,0,3.41-1.803,3.436-3.604c0.026-1.802-1.097-3.604-3.459-3.604h-5.495V104.106L71.028,104.106z M71.028,93.196h3.821   c1.917,0,2.985-1.487,2.978-2.975c-0.007-1.448-0.932-2.974-3-2.974h-3.798V93.196L71.028,93.196z M51.766,83.768h2.792   l8.781,23.545h-4.408l-2.138-5.802h-7.186l-2.093,5.802h-4.329L51.766,83.768L51.766,83.768z M53.227,91.291l-2.253,6.819h4.421   L53.227,91.291L53.227,91.291z M94.37,83.768h2.792l8.781,23.545h-4.408l-2.139-5.802h-7.186l-2.093,5.802H85.79L94.37,83.768   L94.37,83.768z M95.831,91.291l-2.252,6.819h4.42L95.831,91.291L95.831,91.291z M152.91,95.277c0-2.729,0.514-4.894,1.541-6.496   c1.027-1.601,2.297-2.403,4.041-2.403c1.741,0,3.013,0.802,4.046,2.408c1.032,1.604,1.549,3.77,1.549,6.491   c0,2.725-0.517,4.891-1.549,6.496c-1.033,1.605-2.305,2.408-4.046,2.408c-1.744,0-3.014-0.803-4.041-2.408   C153.424,100.168,152.91,98.002,152.91,95.277L152.91,95.277z"
   id="path2255" />
	<path
   fill-rule="evenodd"
   clip-rule="evenodd"
   fill="#EE2A2E"
   d="M96.46,79.499c0.632,0,1.146,0.515,1.146,1.147   s-0.514,1.147-1.146,1.147s-1.147-0.515-1.147-1.147S95.828,79.499,96.46,79.499L96.46,79.499z M117.858,80.542   c-4.778,0.452-9.563,0.77-14.539,0.782c-1.43,0.047-1.946-0.359-1.946-0.794l0,0c0-0.435,0.422-0.847,1.946-0.794   C108.165,79.739,113.013,80.037,117.858,80.542L117.858,80.542z M75.03,80.517c4.779-0.452,9.564-0.771,14.54-0.782   c1.43-0.047,1.946,0.358,1.946,0.793c0,0,0,0,0,0c0,0.436-0.421,0.847-1.946,0.794C84.724,81.318,79.877,81.021,75.03,80.517   L75.03,80.517z"
   id="path2257" />
	<path
   fill="#EE2A2E"
   d="M96.479,58.552h0.001c10.428,0,19.895,4.253,26.754,11.112c3.522,3.523,6.356,7.733,8.281,12.409h-1.667   c-1.839-4.253-4.468-8.089-7.701-11.322c-6.581-6.582-15.663-10.662-25.667-10.663h-0.001h-0.003   C86.473,60.089,77.391,64.169,70.81,70.75c-3.233,3.233-5.862,7.07-7.701,11.323h-1.668c1.925-4.676,4.76-8.887,8.283-12.41   c6.859-6.858,16.325-11.111,26.752-11.111H96.479L96.479,58.552z M131.418,111.003c-1.923,4.581-4.721,8.709-8.184,12.173   c-6.858,6.858-16.325,11.11-26.752,11.111h-0.003h-0.002c-10.428,0-19.895-4.253-26.754-11.112   c-3.463-3.463-6.261-7.592-8.183-12.172h1.672c1.833,4.158,4.424,7.913,7.597,11.086c6.581,6.581,15.664,10.662,25.668,10.662   h0.002h0.003c10.003-0.001,19.085-4.081,25.665-10.661c3.174-3.173,5.765-6.928,7.598-11.087H131.418L131.418,111.003z    M96.479,37.457h0.001c16.238,0.001,30.978,6.623,41.659,17.303c7.428,7.428,12.891,16.82,15.53,27.313h-1.584   c-2.606-10.069-7.886-19.081-15.032-26.227c-10.402-10.403-24.759-16.853-40.573-16.853h-0.001h-0.003   c-15.813,0-30.168,6.449-40.57,16.851c-7.146,7.147-12.427,16.159-15.033,26.228h-1.584c2.639-10.494,8.103-19.886,15.531-27.314   C65.5,44.08,80.239,37.458,96.476,37.457H96.479L96.479,37.457z M153.61,111.003c-2.662,10.397-8.1,19.705-15.472,27.077   c-10.68,10.68-25.42,17.302-41.656,17.302h-0.003h-0.002c-16.237,0-30.979-6.622-41.659-17.303   c-7.372-7.372-12.809-16.679-15.471-27.076h1.588c2.627,9.973,7.879,18.9,14.969,25.99c10.403,10.402,24.759,16.853,40.573,16.853   h0.002h0.003c15.813-0.001,30.168-6.45,40.569-16.852c7.091-7.09,12.343-16.018,14.971-25.991H153.61L153.61,111.003z"
   id="path2259" />
	<path
   fill-rule="evenodd"
   clip-rule="evenodd"
   fill="#FFFFFF"
   d="M172.972,95.281v1.171h0.526c0.3,0,0.519-0.046,0.658-0.137   c0.138-0.092,0.206-0.236,0.206-0.433c0-0.207-0.071-0.358-0.216-0.456c-0.144-0.097-0.372-0.146-0.684-0.146H172.972   L172.972,95.281z M172.174,94.779h1.433c0.518,0,0.911,0.085,1.177,0.255c0.267,0.17,0.4,0.421,0.4,0.753   c0,0.272-0.072,0.498-0.216,0.675c-0.143,0.178-0.348,0.295-0.614,0.352l0.83,1.687h-0.893l-0.74-1.557h-0.579v1.557h-0.798V94.779   L172.174,94.779z M173.531,93.881c-0.386,0-0.744,0.067-1.074,0.204c-0.331,0.136-0.63,0.336-0.896,0.601   c-0.274,0.28-0.485,0.594-0.633,0.94c-0.148,0.346-0.222,0.706-0.222,1.078c0,0.374,0.07,0.729,0.21,1.069   c0.141,0.338,0.344,0.641,0.608,0.91c0.269,0.271,0.573,0.479,0.913,0.627c0.34,0.145,0.688,0.219,1.047,0.219   c0.39,0,0.756-0.07,1.104-0.21c0.347-0.141,0.659-0.346,0.937-0.618c0.267-0.256,0.47-0.553,0.613-0.888   c0.143-0.336,0.215-0.691,0.215-1.063c0-0.396-0.067-0.767-0.204-1.108c-0.136-0.341-0.336-0.647-0.602-0.919   c-0.276-0.275-0.588-0.483-0.929-0.627C174.278,93.954,173.916,93.881,173.531,93.881L173.531,93.881z M173.526,93.384   c0.458,0,0.89,0.084,1.294,0.251c0.406,0.168,0.768,0.415,1.084,0.741c0.31,0.311,0.544,0.664,0.706,1.061   c0.161,0.396,0.242,0.817,0.242,1.264c0,0.458-0.083,0.887-0.25,1.288c-0.165,0.4-0.407,0.755-0.725,1.063   c-0.322,0.314-0.687,0.555-1.091,0.723c-0.403,0.167-0.824,0.251-1.261,0.251c-0.44,0-0.863-0.086-1.269-0.259   c-0.404-0.171-0.766-0.419-1.084-0.742c-0.313-0.316-0.553-0.675-0.718-1.071c-0.164-0.398-0.247-0.816-0.247-1.253   c0-0.44,0.086-0.865,0.259-1.275c0.172-0.411,0.42-0.776,0.743-1.099c0.311-0.313,0.661-0.547,1.052-0.706   C172.652,93.464,173.074,93.384,173.526,93.384L173.526,93.384z"
   id="path2261" />
</g>
</svg>