<svg xmlns="http://www.w3.org/2000/svg" version="1.1" xmlns:xlink="http://www.w3.org/1999/xlink" xmlns:svgjs="http://svgjs.com/svgjs" width="1440" height="560" preserveAspectRatio="none" viewBox="0 0 1440 560"><g mask="url(&quot;#SvgjsMask1237&quot;)" fill="none"><path d="M -281.80803245077976,256 C -185.81,293.8 6.19,446.6 198.19196754922024,445 C 390.19,443.4 486.19,270.2 678.1919675492202,248 C 870.19,225.8 966.19,345 1158.1919675492202,334 C 1350.19,323 1581.83,194.2 1638.1919675492202,193 C 1694.55,191.8 1479.64,301 1440,328" stroke="rgba(221, 160, 160, 0.74)" stroke-width="2"></path><path d="M -766.4985831878159,231 C -670.5,267.2 -478.5,446.4 -286.4985831878159,412 C -94.5,377.6 1.5,76.8 193.50141681218412,59 C 385.5,41.2 481.5,294.6 673.5014168121841,323 C 865.5,351.4 1000.2,176 1153.501416812184,201 C 1306.8,226 1382.7,398.6 1440,448" stroke="rgba(221, 160, 160, 0.74)" stroke-width="2"></path><path d="M -648.7918014301541,68 C -552.79,154.2 -360.79,470.6 -168.79180143015412,499 C 23.21,527.4 119.21,243.4 311.2081985698459,210 C 503.21,176.6 599.21,319 791.2081985698459,332 C 983.21,345 1141.45,263.2 1271.208198569846,275 C 1400.97,286.8 1406.24,367.8 1440,391" stroke="rgba(221, 160, 160, 0.74)" stroke-width="2"></path><path d="M -926.2359760003869,408 C -830.24,352 -638.24,130.4 -446.23597600038687,128 C -254.24,125.6 -158.24,379.2 33.76402399961313,396 C 225.76,412.8 321.76,202.2 513.7640239996131,212 C 705.76,221.8 808.52,447.2 993.7640239996131,445 C 1179.01,442.8 1350.75,249.8 1440,201" stroke="rgba(221, 160, 160, 0.74)" stroke-width="2"></path></g><defs><mask id="SvgjsMask1237"><rect width="1440" height="560" fill="#ffffff"></rect></mask></defs></svg>